
        <svg xmlns="http://www.w3.org/2000/svg" xmlns:xlink="http://www.w3.org/1999/xlink" version="1.1" width="3184.6153846153843" 
        height="784.3395147809542" viewBox="0 0 3184.6153846153843 784.3395147809542">
			<rect fill="#ffffff" width="3184.6153846153843" height="784.3395147809542"/>
			<g transform="scale(9.23076923076923) translate(10, 10)">
				<defs id="SvgjsDefs11547"><linearGradient id="SvgjsLinearGradient11552"><stop id="SvgjsStop11553" stop-color="#00ff8f" offset="0"></stop><stop id="SvgjsStop11554" stop-color="#00a1ff" offset="1"></stop></linearGradient></defs><g id="SvgjsG11548" featureKey="odWo6G-0" transform="matrix(1.0845374095570668,0,0,1.0845374095570668,3.272916457279294,-21.742568462913365)" fill="url(#SvgjsLinearGradient11552)"><g xmlns="http://www.w3.org/2000/svg"><path d="M62.7490234,61.2602539c-0.2536621,0-0.5039673,0.0143433-0.7515259,0.0380249l-0.7831421-0.7832642   c0.5724487-0.8481445,0.8818359-1.8458862,0.8818359-2.8919678c0-1.3857422-0.5400391-2.6884766-1.515625-3.6635742   l-10.4163818-10.545166c-0.0335693-0.0482788-0.053772-0.1027222-0.0968018-0.145752   c-0.0557861-0.0557251-0.1253662-0.0894775-0.1849365-0.1394653l-3.6397705-3.6847534   c-1.4399414-1.4404297-4.1796875-0.9570313-6.2358398,1.1000977c-0.1392822,0.1393433-0.2528076,0.288269-0.3775635,0.4332275   l-2.0223389-6.6739502l2.1845703-10.972168c0.246582-1.2392578-0.3789063-2.4814453-1.5214844-3.0209961   c-0.7055664-0.3325195-1.5234375-0.3510742-2.2426758-0.0463867c-0.7192383,0.3037109-1.2768555,0.9013672-1.5297852,1.6396484   l-3.9443359,11.5009766c-0.0361328,0.1040039-0.0541992,0.2138672-0.0541992,0.3242188v5.8978882l-6.7841797-5.1063843   l-2.6640625-11.0087891c-0.3657227-1.5141602-1.8466797-2.4428711-3.3686523-2.1201172   c-1.4575195,0.3105469-2.4379883,1.7099609-2.2314453,3.1860352l1.8862305,13.4921875   c0.0288086,0.2055664,0.1206055,0.3969727,0.2631836,0.5478516l16.2456055,17.2507324   c-0.0512085-0.0009766-0.1013184-0.012085-0.152832-0.005127l-10.7250977,1.453125   c-1.3154297,0.1787109-2.3076172,1.3144531-2.3076172,2.6420898c0,0.7133789,0.277832,1.3833008,0.7827148,1.887207   c0.503418,0.5024414,1.171875,0.7788086,1.8828125,0.7788086c0.0019531,0,0.0039063,0,0.0058594,0l9.4150391-0.0200195   l9.8759766,7.362793c1.027832,0.765625,2.2856445,1.175293,3.5571289,1.175293   c0.3110352,0,0.6225586-0.0244141,0.9316406-0.0742188l0.6793213-0.109314   c0.3505249,1.3113403,0.8245239,2.4342651,1.7318115,3.0541382c0.699707,0.4780273,1.4238281,0.6625977,2.1166992,0.6625977   c0.6791382,0,1.324707-0.1806641,1.8900146-0.4326172c0.1343384,0.4267578,0.3565063,0.8334961,0.7159424,1.1928711   c0.2768555,0.2773438,0.5629883,0.6088867,0.8671875,0.9599609c1.2651367,1.4594727,3.0834961,3.5581055,5.8500977,3.5576172   c0.4672852,0,0.9624023-0.0595703,1.4863281-0.1928711c3.932312-0.9996338,7.1069336-4.1065674,7.1641846-6.9144897   c0.6135864-1.116272,0.9642334-2.3966064,0.9642334-3.7578735C70.5771484,64.7719727,67.0654297,61.2602539,62.7490234,61.2602539z    M49.3173828,68.6762695c-0.4731445-2.2602539-0.9624023-4.597168-2.6079102-5.7631836   c-0.5737305-0.40625,0.2036133-1.6870117,1.2792969-3.3193359c0.5125122-0.7772217,1.0033569-1.5336304,1.3375854-2.2647095   l3.2999878,3.3405762c1.3963623,2.2962646-0.8179932,6.6834106-2.2994385,7.8555298l-1.0072021,0.1621094   C49.3189697,68.6836548,49.3181152,68.6798706,49.3173828,68.6762695z M55.052063,62.4575806   c0.5968018,0.2279663,1.2252808,0.3505249,1.8561401,0.3505249c0.5256958,0,1.0459595-0.1022339,1.552063-0.2607422   c-1.8331299,1.2059937-3.124939,3.1604004-3.4504395,5.4252319c-0.1802368-0.0892334-0.380188-0.1410522-0.5913696-0.105896   l-1.12323,0.1807861C54.2874146,66.4560547,55.0482178,64.3795166,55.052063,62.4575806z M67.9403687,66.4527588   c-0.6082764,0.4498901-1.5429688,1.2305298-2.7528687,2.5330811c-1.7141724,1.8452759-1.4558105,4.3789673-1.1303711,5.7772827   c-0.4212036,0.0971069-0.8577881,0.1533813-1.3081055,0.1533813c-2.9528809,0-5.3935547-2.2088013-5.7714844-5.0599976   c0.9338379-0.4493408,3.9523315-1.9446411,6.3452148-3.6211548c1.4074097-0.9859009,2.2176514-1.5925903,2.694458-1.9696655   C66.8296509,64.8179932,67.4914551,65.5722046,67.9403687,66.4527588z M68.5771484,69.0883789   c0,2.0375366-1.0526123,3.8313599-2.6408081,4.8735352c-0.1886597-1.0343018-0.2484131-2.576355,0.7160034-3.6147461   c0.7670288-0.8255005,1.4030151-1.4094238,1.8962402-1.822876C68.5665283,68.710083,68.5771484,68.8980103,68.5771484,69.0883789z    M63.8846436,63.3731079c-0.4286499,0.3158569-0.9748535,0.7099609-1.7093506,1.2245483   c-1.6735229,1.1723633-3.7330933,2.281189-5.0402832,2.9469604c0.6790771-2.4658203,2.9352417-4.2843628,5.6140137-4.2843628   C63.1376953,63.2602539,63.5170288,63.3001709,63.8846436,63.3731079z M60.0961914,57.6230469   c0,0.5048218-0.1295776,0.9853516-0.3499756,1.4235229l-0.2745361-0.2745972c-0.390625-0.390625-1.0234375-0.390625-1.4140625,0   c-0.390625,0.3901367-0.390625,1.0234375,0,1.4140625l0.2733765,0.2734375   c-1.1936646,0.5975342-2.6810303,0.413147-3.6723022-0.578125L44.2410278,49.3352051   c-0.0332031-0.0475464-0.0530396-0.1013184-0.09552-0.1437988c-0.5444336-0.5449219-0.1899414-2.1176758,1.1000977-3.4077148   c1.2062378-1.2071533,2.6483765-1.5847778,3.2783203-1.1842651l10.6381836,10.7697144   C59.7641602,55.9711914,60.0961914,56.7714844,60.0961914,57.6230469z M41.4208984,41.9584961   c0.9033203-0.9033203,1.9453125-1.3476563,2.6743164-1.3476563c0.3120117,0,0.5668945,0.081543,0.7290039,0.2431641   l1.7856445,1.8077393c-0.9497681,0.2857056-1.9223633,0.8515015-2.7783203,1.7078857   c-0.8667603,0.8665161-1.4351807,1.852356-1.7169189,2.8129883l-1.7894287-1.8115234   c-0.0014648-0.0014648-0.0029297-0.0029297-0.0043945-0.0043945   C39.7763672,44.8222656,40.1313477,43.2490234,41.4208984,41.9584961z M17.4311523,24.300293   c-0.0615234-0.4414063,0.2314453-0.8598633,0.6679688-0.9526367c0.4511719-0.1005859,0.8979492,0.1811523,1.0073242,0.6342773   l2.7485352,11.3574219c0.0546875,0.2250977,0.1855469,0.4243164,0.3706055,0.5634766l11.625,8.75   c0.4418945,0.3334961,1.0688477,0.2431641,1.4003906-0.1972656c0.3320313-0.4414063,0.2436523-1.0683594-0.1972656-1.4003906   l-2.5546875-1.9229126v-7.2367554l3.8901367-11.3432617c0.0942383-0.2749023,0.3012695-0.3974609,0.4165039-0.4458008   c0.1147461-0.0498047,0.3476563-0.1123047,0.6103516,0.0126953c0.3105469,0.1469727,0.480957,0.4848633,0.4135742,0.8217773   l-2.2333984,11.2177734c-0.0317383,0.1611328-0.0239258,0.328125,0.0239258,0.4853516l2.5,8.25   c0.0410156,0.135376,0.1146851,0.2486572,0.2008057,0.3500977c-0.3441162,1.0829468-0.3148193,2.1386719,0.1486816,2.9568481   c-0.6277466,1.5444336-2.1303711,6.0328369-0.8716431,10.734436L19.2734375,37.4765625L17.4311523,24.300293z M46.7939453,69.09375   c-1.0429688,0.168457-2.1279297-0.0981445-2.9760742-0.7299805l-10.1430664-7.5615234   c-0.1728516-0.1289063-0.3823242-0.1982422-0.5976563-0.1982422c-0.0004883,0-0.0014648,0-0.0019531,0l-9.7475586,0.0205078   c-0.0004883,0-0.0009766,0-0.0014648,0c-0.1777344,0-0.3447266-0.0688477-0.4702148-0.1943359   c-0.1264648-0.1259766-0.1958008-0.293457-0.1958008-0.4716797c0-0.3320313,0.2480469-0.6157227,0.5766602-0.6606445   l10.3764648-1.4057617l9.0737305,5.4516602c0.4736328,0.2856445,1.0874023,0.1308594,1.3720703-0.3417969   c0.284668-0.4736328,0.1313477-1.0878906-0.3417969-1.3720703l-2.3421631-1.4073486   c-3.3331909-4.4447021-2.1940308-9.8513184-1.3818359-12.3413086l7.7391357,7.8342896   c0.0549316,0.5415649-0.8508301,1.9240723-1.4135742,2.7776489c-1.25,1.8974609-2.9628906,4.4956055-0.765625,6.0517578   c0.9899292,0.701355,1.4175415,2.6856079,1.7894897,4.4605103L46.7939453,69.09375z M50.6503906,72.3618164   c-0.3709106-0.2533569-0.6456299-0.9203491-0.8733521-1.7224731l4.5605469-0.7339478   c-0.277771,0.5192261-0.6008301,1.2330322-0.7958374,2.0106812C53.1136475,72.2575073,51.803894,73.1497803,50.6503906,72.3618164z    M61.9555664,77.8222656c-2.2504883,0.5712891-3.6303711-0.7729492-5.331543-2.7363281   c-0.3378906-0.3896484-0.6572266-0.7563477-0.9648438-1.0639648c-0.3928833-0.3928833-0.3380127-1.1219482-0.1101685-1.864624   c1.1959839,2.795166,3.9724731,4.7591553,7.2000122,4.7591553c0.6448364,0,1.2683716-0.0869751,1.8682861-0.2347412   C63.8338013,77.1685791,62.9346924,77.5733032,61.9555664,77.8222656z M67.5771484,54.6040039c-1.6542969,0-3,1.3457031-3,3   s1.3457031,3,3,3s3-1.3457031,3-3S69.2314453,54.6040039,67.5771484,54.6040039z M67.5771484,58.6040039   c-0.5512695,0-1-0.4487305-1-1s0.4487305-1,1-1s1,0.4487305,1,1S68.128418,58.6040039,67.5771484,58.6040039z    M62.5771484,46.6040039c0,1.6542969,1.3457031,3,3,3s3-1.3457031,3-3s-1.3457031-3-3-3   S62.5771484,44.949707,62.5771484,46.6040039z M65.5771484,45.6040039c0.5512695,0,1,0.4487305,1,1s-0.4487305,1-1,1   s-1-0.4487305-1-1S65.0258789,45.6040039,65.5771484,45.6040039z M76.5771484,52.6040039c0,1.1030273-0.8969727,2-2,2   s-2-0.8969727-2-2s0.8969727-2,2-2S76.5771484,51.5009766,76.5771484,52.6040039z M72.5771484,42.6040039   c1.6542969,0,3-1.3457031,3-3s-1.3457031-3-3-3s-3,1.3457031-3,3S70.9228516,42.6040039,72.5771484,42.6040039z    M72.5771484,38.6040039c0.5512695,0,1,0.4487305,1,1s-0.4487305,1-1,1s-1-0.4487305-1-1   S72.0258789,38.6040039,72.5771484,38.6040039z M65.5771484,33.6040039c-1.1030273,0-2-0.8969727-2-2s0.8969727-2,2-2   s2,0.8969727,2,2S66.6801758,33.6040039,65.5771484,33.6040039z M78.5771484,29.6040039c0,1.1030273-0.8969727,2-2,2   s-2-0.8969727-2-2s0.8969727-2,2-2S78.5771484,28.5009766,78.5771484,29.6040039z M84.5771484,44.6040039   c0,1.1030273-0.8969727,2-2,2s-2-0.8969727-2-2s0.8969727-2,2-2S84.5771484,43.5009766,84.5771484,44.6040039z"></path></g></g><g id="SvgjsG11549" featureKey="VGK2BT-0" transform="matrix(3.05672230671275,0,0,3.05672230671275,93.77731005702375,-5.7334005855178365)" fill="#416085"><path d="M6.86 6.66 l-0.82 -1.84 l2.4 0 l7.18 15.18 l-2.44 0 l-0.98 -2.18 l-4.54 0 q-1.28 0 -2.3 0.24 q-0.9 0.22 -1.5 0.58 q-0.54 0.32 -0.72 0.66 l-0.38 0.7 l-2.36 0 z M8.46 15.620000000000001 l2.76 0 l-3.26 -6.3 l-3.3 7.14 q0.44 -0.38 1.34 -0.6 q1.02 -0.24 2.46 -0.24 z M19.454 20 l-2.04 0 l0 -10.36 l2.04 0 l0 10.36 z M30.608 15.780000000000001 l0.64 1.08 q0.34 0.56 0.86 0.78 q0.36 0.14 0.88 0.14 l0.72 0 l0 2.22 l-0.9 0 q-0.66 0 -1.04 -0.08 q-0.56 -0.12 -1.02 -0.44 q-0.5 -0.38 -0.96 -1.12 l-1.6 -2.6 l-0.14 0 q-1.14 0 -1.74 0.14 q-0.48 0.1 -1.16 0.46 l0 3.64 l-2.1 0 l0 -10.36 l6.68 0 q0.94 0 1.68 0.4 t1.16 1.12 t0.42 1.6 q0 1.16 -0.61 1.91 t-1.77 1.11 z M28.048000000000002 13.7 l1.68 0 q0.5 0 0.83 -0.26 t0.33 -0.74 q0 -0.62 -0.48 -0.84 q-0.34 -0.16 -1.04 -0.16 l-4.22 0 l0 2.6 q1.1 -0.6 2.9 -0.6 z M38.562000000000005 11.7 l0 2.36 q0.62 -0.36 1.5 -0.5 q0.68 -0.1 1.74 -0.1 l1.06 0 q0.54 0 0.79 -0.22 t0.25 -0.66 t-0.28 -0.66 t-0.76 -0.22 l-4.3 0 z M38.562000000000005 16.16 l0 1.76 l4.3 0 q0.74 0 1.12 -0.22 q0.5 -0.3 0.5 -0.98 q0 -0.58 -0.39 -0.87 t-1.23 -0.29 l-1.06 0 q-1.38 0 -2 0.12 q-0.54 0.1 -1.24 0.48 z M46.542 16.759999999999998 q0 1.52 -0.98 2.38 t-2.7 0.86 l-6.36 0 l0 -10.36 l6.36 0 q0.84 0 1.56 0.37 t1.15 1.04 t0.43 1.51 q0 1.16 -0.68 1.78 q0.58 0.34 0.9 0.99 t0.32 1.43 z M56.976000000000006 20 l-7.64 0 l0 -10.36 l2.14 0 l0 8.28 l5.5 0 l0 2.08 z M60.81 20 l-2.04 0 l0 -10.36 l2.04 0 l0 10.36 z M73.48400000000001 14.74 q0 -1.1 -0.6 -1.9 q-0.52 -0.7 -1.46 -1.08 q-0.86 -0.34 -1.9 -0.34 t-1.92 0.36 q-0.94 0.38 -1.46 1.12 q-0.58 0.8 -0.58 1.92 t0.6 1.92 q0.52 0.72 1.46 1.12 q0.88 0.36 1.9 0.36 t1.92 -0.4 q0.92 -0.42 1.46 -1.18 q0.58 -0.82 0.58 -1.9 z M75.644 14.719999999999999 q0 1.7 -0.9 3.02 q-0.82 1.22 -2.26 1.92 q-1.38 0.66 -2.98 0.66 t-2.98 -0.66 q-1.42 -0.68 -2.24 -1.88 q-0.88 -1.32 -0.88 -3 t0.9 -2.98 q0.82 -1.2 2.26 -1.86 q1.38 -0.64 2.98 -0.64 t2.96 0.6 q1.42 0.64 2.24 1.82 q0.9 1.28 0.9 3 z"></path></g>
			</g>
		</svg>
	